<?xml version="1.0" encoding="UTF-8"?>
<!DOCTYPE svg PUBLIC "-//W3C//DTD SVG 1.1//EN" "http://www.w3.org/Graphics/SVG/1.1/DTD/svg11.dtd">
<!-- Creator: CorelDRAW 2018 (64 Bit Versión de evaluación) -->
<svg xmlns="http://www.w3.org/2000/svg" xml:space="preserve" width="215.9mm" height="279.4mm" version="1.1" style="shape-rendering:geometricPrecision; text-rendering:geometricPrecision; image-rendering:optimizeQuality; fill-rule:evenodd; clip-rule:evenodd"
viewBox="0 0 21590 27940"
 xmlns:xlink="http://www.w3.org/1999/xlink"
 data-name="Layer 1">
 <defs>
  <style type="text/css">
   <![CDATA[
    .fil1 {fill:#38D39F}
    .fil3 {fill:#3A3768}
    .fil2 {fill:#444053}
    .fil8 {fill:#A8A8A8}
    .fil4 {fill:#E6E8EC}
    .fil6 {fill:#FFD037}
    .fil16 {fill:#476AAA;fill-rule:nonzero}
    .fil18 {fill:#334F7D;fill-rule:nonzero}
    .fil17 {fill:#334F7D;fill-rule:nonzero}
    .fil30 {fill:#426598;fill-rule:nonzero}
    .fil28 {fill:#476CA3;fill-rule:nonzero}
    .fil29 {fill:#567CBD;fill-rule:nonzero}
    .fil39 {fill:#5F85C3;fill-rule:nonzero}
    .fil27 {fill:#6485C2;fill-rule:nonzero}
    .fil40 {fill:#658DC8;fill-rule:nonzero}
    .fil24 {fill:#6798B7;fill-rule:nonzero}
    .fil32 {fill:#6990CA;fill-rule:nonzero}
    .fil11 {fill:#7198CE;fill-rule:nonzero}
    .fil23 {fill:#724946;fill-rule:nonzero}
    .fil14 {fill:#73CCD3;fill-rule:nonzero}
    .fil15 {fill:#76B0CD;fill-rule:nonzero}
    .fil26 {fill:#78CEDE;fill-rule:nonzero}
    .fil31 {fill:#79A1D4;fill-rule:nonzero}
    .fil21 {fill:#7C4F4C;fill-rule:nonzero}
    .fil36 {fill:#7D4840;fill-rule:nonzero}
    .fil22 {fill:#8F5953;fill-rule:nonzero}
    .fil25 {fill:#92D6E1;fill-rule:nonzero}
    .fil13 {fill:#968E94;fill-rule:nonzero}
    .fil33 {fill:#98554F;fill-rule:nonzero}
    .fil20 {fill:#A6665E;fill-rule:nonzero}
    .fil35 {fill:#B66E5E;fill-rule:nonzero}
    .fil38 {fill:#F16678;fill-rule:nonzero}
    .fil12 {fill:#F2D4CF;fill-rule:nonzero}
    .fil37 {fill:#F37875;fill-rule:nonzero}
    .fil34 {fill:#F69473;fill-rule:nonzero}
    .fil10 {fill:#F8A480;fill-rule:nonzero}
    .fil7 {fill:#FAB992;fill-rule:nonzero}
    .fil19 {fill:#FEFEFE;fill-rule:nonzero}
    .fil5 {fill:black;fill-opacity:0.101961}
    .fil0 {fill:#38D39F;fill-opacity:0.101961}
    .fil9 {fill:black;fill-opacity:0.200000}
   ]]>
   
  </style>
 </defs>
 <g id="Capa_x0020_1">
  <metadata id="CorelCorpID_0Corel-Layer"/>
  <g id="_846758926160">
   <path class="fil0" d="M13318.53 5646.24c-1712.38,-59.53 -3343.28,-612.25 -4900.61,-1217.08 -1557.33,-604.83 -3099.86,-1275.03 -4771.23,-1595.44 -1075,-206.11 -2304.52,-235.21 -3170.5,341.05 -833.7,555.63 -1103.05,1512.09 -1247.78,2400.56 -109.01,668.34 -173.04,1371.86 125.41,1997.34 207.43,434.45 575.2,799.57 829.73,1215.76 885.56,1447.8 259.56,3233.21 -699.82,4646.88 -449.79,663.31 -972.34,1296.46 -1319.74,2001.84 -347.4,705.38 -508,1514.74 -203.99,2234.94 301.1,714.38 1018.91,1249.89 1796.52,1626.92 1579.3,765.97 3439.58,985.04 5254.89,1109.13 4017.17,274.9 8055.5,155.84 12083.26,36.78 1490.66,-44.19 2987.68,-88.9 4454,-319.35 814.39,-128.06 1654.97,-330.99 2246.31,-821.53 750.36,-622.56 936.36,-1676.66 433.39,-2457.45 -843.49,-1309.42 -3175,-1634.6 -3765.29,-3039.8 -324.38,-773.64 8.73,-1635.13 480.48,-2352.68 1011.77,-1538.82 2707.48,-2888.99 2796.65,-4647.94 61.38,-1208.09 -753.8,-2418.03 -2014.27,-2989.79 -1321.06,-599.02 -3153.3,-523.88 -4127.5,468.05 -1004.1,1021.29 -2767.81,1414.2 -4279.91,1361.81z"/>
   <path class="fil0" d="M18634.28 23362.48c0,-600.86 -3600.77,-1087.96 -8042.54,-1087.96 -4441.77,0 -8042.54,487.1 -8042.54,1087.96 0,600.86 3600.77,1087.96 8042.54,1087.96 4441.77,0 8042.54,-487.1 8042.54,-1087.96z"/>
   <path class="fil1" d="M6610.29 20123.45c0,0 555.63,-88.9 889,303.74 0,0 -244.48,192.62 -770.47,-74.08l-118.53 -229.66z"/>
   <path class="fil1" d="M6551.02 20114.72c0,0 -354.54,438.67 -180.71,922.07 0,0 288.93,-115.62 320.41,-704.59l-139.7 -217.48z"/>
   <path class="fil1" d="M6233.52 19397.43c0,0 222.25,-407.46 1111.25,162.98 0,0 -118.53,274.11 -511.18,251.88 -392.65,-22.23 -497.68,-200.02 -600.07,-414.86z"/>
   <path class="fil1" d="M6175.05 19368.06c0,0 -461.17,-52.92 -505.88,1002.77 0,0 292.36,60.85 500.06,-273.31 207.7,-334.16 121.7,-520.97 5.82,-729.46z"/>
   <path class="fil1" d="M5906.23 18526.16c0,0 259.29,-718.87 1200.41,-207.7 0,0 -214.84,659.61 -1104.11,452.17l-96.3 -244.47z"/>
   <path class="fil1" d="M5617.31 17451.68c0,0 488.95,-726.02 1355.99,-52.92 0,0 -303.74,681.57 -1281.91,311.15l-74.08 -258.23z"/>
   <path class="fil1" d="M5513.59 16429.33c0,0 570.44,-666.75 1428.75,0 0,0 -541.07,585.26 -1428.75,170.39l0 -170.39z"/>
   <path class="fil1" d="M5424.69 15436.62c0,0 577.85,-696.65 1400.44,-37.04 0,0 -652.2,614.89 -1400.44,200.03l0 -162.99z"/>
   <path class="fil1" d="M5476.55 14554.76c0,0 608.54,-896.41 1378.21,-288.93 0,0 -652.2,770.73 -1378.21,459.32l0 -170.39z"/>
   <path class="fil1" d="M5617.31 13525c0,0 644.53,-889 1393.03,-207.43 0,0 -763.32,770.47 -1393.03,370.42l0 -162.99z"/>
   <path class="fil1" d="M5832.41 12604.52c0,0 762.79,-835.29 1428.75,-502.71 0,0 -795.34,887.15 -1462.09,724.16l33.34 -221.45z"/>
   <path class="fil1" d="M6098.85 11732.19c0,0 881.86,-1022.61 1393.03,-681.83 0,0 -648.76,793.75 -1455.21,874.45l62.18 -192.62z"/>
   <path class="fil1" d="M6483.82 10719.89c0,0 771,-835.55 1334.03,-628.12 0,0 -659.34,867.04 -1437.48,889.26l103.45 -261.14z"/>
   <path class="fil1" d="M6832.54 9773.21c0,0 851.96,-800.1 1222.38,-659.34 0,0 -614.89,889 -1259.42,837.14l37.04 -177.8z"/>
   <path class="fil1" d="M7173.32 8899.03c0,0 733.43,-955.68 1133.48,-881.59 0,0 -444.5,851.96 -1133.48,978.96l0 -97.37z"/>
   <path class="fil1" d="M7542.94 7721.1c0,0 648.49,-732.9 998.54,-731.04 0,0 -511.7,978.96 -1025,969.96l26.46 -238.92z"/>
   <path class="fil1" d="M7762.28 6935.56l626 -1526.12c0,0 31.49,1379.54 -705.91,1809.22l79.91 -283.1z"/>
   <path class="fil1" d="M8016.28 5252.54c0,0 103.72,-1274.23 37.04,-1377.95 0,0 447.94,1058.33 -41.28,1940.98l4.24 -563.03z"/>
   <path class="fil1" d="M5882.15 18508.96c0,0 -649.55,-402.43 -1069.71,582.08 0,0 577.85,383.65 1145.91,-330.99l-76.2 -251.09z"/>
   <path class="fil1" d="M5596.67 17410.67c0,0 -796.4,-363.27 -1182.95,664.63 0,0 615.42,423.33 1255.45,-404.81l-72.5 -259.82z"/>
   <path class="fil1" d="M5476.55 16490.45c0,0 -570.44,-666.75 -1428.75,0 0,0 540.81,585.26 1428.75,170.39l0 -170.39z"/>
   <path class="fil1" d="M5405.37 15436.62c0,0 -578.11,-696.65 -1400.44,-37.04 0,0 651.93,614.89 1400.44,200.03l0 -162.99z"/>
   <path class="fil1" d="M5476.55 14580.16c0,0 -405.34,-1004.09 -1286.4,-572.29 0,0 476.25,890.59 1250.69,738.98l35.71 -166.69z"/>
   <path class="fil1" d="M5668.37 13519.98c0,0 -402.7,-1021.56 -1296.46,-547.95 0,0 547.16,936.36 1256.77,705.91l39.69 -157.96z"/>
   <path class="fil1" d="M5918.14 12609.81c0,0 -158.75,-1120.25 -898.26,-1220.52 0,0 156.9,1181.1 799.57,1422.14l98.69 -201.62z"/>
   <path class="fil1" d="M6117.9 11734.04c0,0 -62.18,-1349.38 -674.69,-1396.21 0,0 20.64,1023.94 605.63,1587.5l69.06 -191.29z"/>
   <path class="fil1" d="M6547.58 10681.26c0,0 -182.83,-1121.83 -767.29,-1259.15 0,0 72.5,1086.64 709.35,1534.58l57.94 -275.43z"/>
   <path class="fil1" d="M6901.86 9781.41c0,0 -6.35,-1168.93 -363.54,-1340.64 0,0 -221.46,1058.33 260.09,1489.87l103.45 -149.23z"/>
   <path class="fil1" d="M7200.57 8885.27c0,0 -50.27,-1203.85 -419.89,-1373.45 0,0 -126.74,952.5 364.33,1452.03l55.56 -78.58z"/>
   <path class="fil1" d="M7594.8 7816.35c0,0 -2.38,-978.96 -266.44,-1208.62 0,0 -262.47,1072.62 128.59,1405.47l137.85 -196.85z"/>
   <path class="fil1" d="M7731.06 6887.4l-256.65 -1629.57c0,0 -349.25,1335.35 268.82,1923.52l-12.17 -293.95z"/>
   <path class="fil1" d="M7781.33 5267.89c0,0 -659.61,-1095.11 -645.85,-1217.08 0,0 69.85,1148.29 899.58,1719.79l-253.73 -502.71z"/>
   <path class="fil1" d="M7858.59 4944.57c0,0 -622.3,-1556.02 -903.82,-1681.96 0,0 889,451.91 955.68,1637.51l-51.86 44.45z"/>
   <path class="fil2" d="M7513.05 7968.49l-42.6 -12.96c525.2,-1712.65 656.43,-2804.58 369.09,-3078.16l30.69 -32.28c304.27,288.65 180.98,1367.89 -357.18,3123.4z"/>
   <path class="fil2" d="M6066.83 11977.46l-62.71 -22.23c55.56,-156.9 115.62,-316.18 178.59,-473.34 548.22,-1366.31 1014.94,-2637.1 1314.19,-3612.89l54.77 -26.46c-299.77,977.64 -758.03,2297.38 -1307.04,3665.27 -62.7,155.58 -122.5,314.33 -177.8,469.65z"/>
   <path class="fil2" d="M7392.13 21405.35c-8.47,-9.53 -859.9,-967.85 -1453.09,-2604.56 -347.14,-956.8 -542.55,-1966.81 -574.33,-2983.89 -40.75,-1273.44 226.48,-2695.31 684.21,-3986.74l49.74 58.21c-1027.38,2898.78 -619.13,5382.95 -77.79,6879.17 587.38,1621.63 1428.75,2569.9 1437.22,2579.16l-65.96 58.65z"/>
   <path class="fil3" d="M14867.4 10366.94l113.24 0c33.46,0 60.59,27.13 60.59,60.59l0 1810.8c0,33.46 -27.13,60.59 -60.59,60.59l-113.24 0c-33.46,0 -60.59,-27.13 -60.59,-60.59l0 -1810.8c0,-33.46 27.13,-60.59 60.59,-60.59z"/>
   <path class="fil3" d="M7077.28 8853.26l10.32 0c33.47,-0.01 60.6,27.12 60.6,60.58l-0.02 514.88c0.02,33.46 -27.11,60.59 -60.57,60.59l-10.33 0c-33.45,0 -60.58,-27.13 -60.58,-60.59l-0.01 -514.88c0.01,-33.46 27.14,-60.59 60.6,-60.59z"/>
   <path class="fil3" d="M7072.51 10017.95l26.99 0c33.47,0 60.6,27.13 60.6,60.59l-0.01 985.84c0.01,33.46 -27.12,60.59 -60.58,60.59l-27 0c-33.45,0 -60.58,-27.13 -60.58,-60.59l-0.01 -985.84c0.01,-33.46 27.14,-60.59 60.6,-60.59z"/>
   <path class="fil3" d="M7074.9 11512.32l19.84 0c33.47,0 60.6,27.13 60.6,60.59l-0.01 995.36c0.01,33.46 -27.12,60.59 -60.58,60.59l-19.85 0c-33.45,0 -60.58,-27.13 -60.58,-60.59l-0.01 -995.36c0.01,-33.46 27.14,-60.59 60.6,-60.59z"/>
   <path class="fil3" d="M8122.65 6751.41l5779.02 0c569.65,0 1031.61,461.96 1031.61,1031.61l0 13875.01c0,569.64 -461.96,1031.6 -1031.61,1031.6l-5779.02 0.01c-569.64,-0.01 -1031.6,-461.97 -1031.6,-1031.62l-0.02 -13875c0.02,-569.65 461.98,-1031.61 1031.63,-1031.61z"/>
   <path class="fil1" d="M13827.06 7165.48l-899.58 0 0 108.21c-0.01,0.01 -0.01,0.01 -0.01,0.01 0,283.14 -229.62,512.76 -512.76,512.76 -0.06,0 -0.19,0 -0.25,0l-2860.95 0c-0.07,0 -0.2,0 -0.26,0 -283.14,0 -512.76,-229.62 -512.76,-512.76 0,0 0,0 0,0l-0.01 -108.22 -842.16 0c-343.91,0 -622.82,278.91 -622.82,622.83l-0.01 13863.37c0.01,343.9 278.92,622.81 622.84,622.81l5628.73 0.02c343.92,-0.02 622.83,-278.93 622.83,-622.85l0 -13862.29c0,-0.3 0,-0.76 0,-1.06 0,-343.92 -278.91,-622.83 -622.83,-622.83 0,0 0,0 0,0z"/>
   <path class="fil4" d="M10358.11 7227.39l890.32 0c56.54,0 102.39,45.85 102.39,102.39l0.01 17.47c-0.01,56.54 -45.86,102.39 -102.4,102.39l-890.32 0c-56.53,0 -102.38,-45.85 -102.38,-102.39l-0.01 -17.47c0.01,-56.54 45.86,-102.39 102.4,-102.39z"/>
   <circle class="fil4" cx="11642.66" cy="7338.52" r="126.2"/>
   <path class="fil1" d="M17648.44 6052.38c0,0 -2227.79,-134.41 -1965.33,1426.63 0,0 -52.92,275.96 197.91,401.11 0,0 3.97,-115.62 228.6,-76.2 56.33,9.34 113.75,14.06 170.91,14.06 23.73,0 47.59,-0.89 71.2,-2.42 109,-7.16 212.99,-49.7 295.79,-120.94l0 0.02c0,0 626.27,-258.76 869.69,-1282.17 0,0 180.18,-223.31 173.04,-280.72l-375.98 160.6c0,0 128.59,271.2 26.46,496.62 0,0 -12.17,-486.83 -84.4,-476.25 -14.55,2.12 -195.26,93.93 -195.26,93.93 0,0 220.93,472.28 54.24,815.71 0,0 63.24,-582.08 -123.3,-781.58l-264.58 154.52c0,0 258.23,487.89 83.08,886.09 0,0 44.98,-610.66 -138.91,-848.52l-239.71 187.06c0,0 242.62,480.75 94.72,810.95 0,0 -19.31,-710.67 -146.58,-764.38 0,0 -209.81,185.21 -241.83,260.88 0,0 166.16,349.25 62.97,533.4 0,0 -63.24,-473.6 -115.09,-476.25 0,0 -209.02,313.8 -230.72,529.17 0,0 9,-319.88 180.18,-558.8 0,0 -202.14,34.66 -320.15,165.63 0,0 32.54,-221.72 371.74,-241.3 0,0 172.77,-238.13 218.81,-252.41 0,0 -337.08,-28.31 -541.6,62.44 0,0 179.92,-209.29 603.51,-114.04l236.8 -193.41c0,0 -443.97,-60.59 -632.35,6.35 0,0 216.69,-185.21 696.12,-50.27l257.7 -153.99c0,0 -378.62,-81.49 -604.04,-52.92 0,0 238.13,-128.32 679.71,10.85l185.21 -82.81c0,0 -277.28,-54.5 -358.51,-63.24 -81.23,-8.74 -85.46,-30.96 -85.46,-30.96 52.16,-8.63 105.24,-13.09 158.19,-13.09 124.34,0 247.75,24.19 362.82,71.04 115.07,46.85 391.01,-145.79 384.4,-170.39z"/>
   <path class="fil1" d="M15363.23 5358.11c0,0 -1005.42,-60.59 -887.94,644.79 0,0 -23.55,124.62 89.43,181.24 0,0 1.85,-52.92 103.45,-34.66 25.36,4.22 51.16,6.43 76.89,6.43 10.8,0 21.66,-0.4 32.41,-1.13 49.29,-3.25 96.29,-22.64 133.59,-55.04l0 0c0,0 283.1,-116.95 393.17,-579.44 0,0 81.23,-100.81 78.05,-126.74l-169.86 72.5c0,0 57.94,122.5 12.44,224.37 0,0 -5.56,-219.87 -38.1,-214.84 -6.61,0 -88.37,42.6 -88.37,42.6 0,0 100.01,213.52 24.61,368.56 0,0 28.58,-263 -55.83,-353.22l-119.6 70.91c0,0 116.68,220.4 37.57,400.31 0,0 20.37,-275.96 -62.71,-383.38l-108.21 84.67c0,0 109.54,217.22 42.86,366.45 0,0 -9,-321.2 -66.41,-345.55 0,0 -94.72,83.61 -109.27,118 0,0 75.14,158.75 28.58,241.04 0,0 -28.58,-214.05 -52.92,-215.11 0,0 -94.46,141.82 -104.25,238.13 4.7,-89.81 32.89,-176.89 81.5,-252.43 -54.49,10.3 -104.81,36.37 -144.71,74.88 -39.9,38.51 14.82,-100.28 168.01,-109.01 0,0 79.38,-107.69 98.95,-114.3 0,0 -152.4,-12.7 -244.74,28.31 0,0 81.23,-94.46 272.52,-51.59l105.83 -87.31c0,0 -200.82,-26.46 -285.75,2.91 0,0 97.9,-83.61 314.59,-22.75l116.42 -69.59c0,0 -171.19,-36.78 -273.05,-23.55 0,0 107.69,-57.94 307.18,4.76l83.34 -37.31c0,0 -125.41,-24.61 -162.19,-28.58 -36.78,-3.97 -38.63,-14.02 -38.63,-14.02 23.45,-3.85 47.33,-5.86 71.15,-5.86 56.33,0 112.24,11.01 164.33,32.35 52.09,21.34 178.85,-66.69 175.67,-77.8z"/>
   <polygon class="fil5" points="8274.52,20304.69 13750.07,20304.69 13750.07,8683.13 8274.52,8683.13 "/>
   <path class="fil5" d="M9152.67 22401.51c0,0 0,112.45 208.23,277.81m-208.23 -277.81l0 0 0 0z"/>
   <path class="fil5" d="M12828 22136.93c0,0 -22.23,233.89 -224.9,355.07m224.9 -355.07l0 0 0 0z"/>
   <path class="fil0" d="M21376.41 23160.07c0,-66.48 -319.01,-120.38 -712.52,-120.38 -393.51,0 -712.52,53.9 -712.52,120.38 0,66.48 319.01,120.38 712.52,120.38 393.51,0 712.52,-53.9 712.52,-120.38z"/>
   <path class="fil0" d="M922.01 24148.02c0,-66.48 -319.01,-120.38 -712.52,-120.38 -393.51,0 -712.52,53.9 -712.52,120.38 0,66.48 319.01,120.38 712.52,120.38 393.51,0 712.52,-53.9 712.52,-120.38z"/>
   <path class="fil0" d="M3678.17 24793.87c0,-66.48 -319.01,-120.38 -712.52,-120.38 -393.51,0 -712.52,53.9 -712.52,120.38 0,66.48 319.01,120.38 712.52,120.38 393.51,0 712.52,-53.9 712.52,-120.38z"/>
   <ellipse class="fil1" cx="19104.18" cy="24450.18" rx="1063.89" ry="179.91"/>
   <path class="fil1" d="M19544.18 24155.96c48.45,-39.61 83.86,-93.13 101.33,-153.2 13.23,-60.59 -12.7,-132.29 -70.91,-155.84 -65.09,-24.87 -134.67,20.37 -187.33,65.88 -52.66,45.51 -113.24,97.63 -182.3,87.84 58.12,-52.54 91.29,-127.32 91.29,-205.65 0,-18.08 -1.79,-36.22 -5.28,-53.93 -3.12,-19.47 -11.44,-37.77 -24.09,-52.9 -35.98,-38.63 -101.6,-22.23 -144.73,8.47 -137.58,96.57 -175.95,283.63 -176.74,451.64 -14.02,-60.59 -2.12,-123.83 -2.65,-185.21 -0.53,-61.38 -17.2,-132.29 -69.85,-164.84 -30.52,-16.34 -64.68,-24.96 -99.33,-24.96 -2.15,0 -4.36,0.05 -6.49,0.1 -61.91,-2.38 -130.7,3.97 -173.04,49.21 -52.92,56.09 -38.63,150.28 6.88,211.67 45.51,61.39 115.09,100.81 179.12,143.4 51.18,30.49 94.93,72.3 127.78,121.97 3.98,6.94 7.17,14.33 9.54,21.96l386.56 0.02c86.94,-44.05 168.11,-100.02 240.27,-165.67l-0.03 0.04z"/>
   <path class="fil1" d="M3002.43 21835.3c0,0 145.52,190.24 -66.94,476.25 -212.46,286.01 -387.61,529.17 -317.5,708.29 0,0 320.68,-533.14 582.08,-540.54 261.4,-7.4 89.43,-323.32 -197.64,-644z"/>
   <path class="fil5" d="M3002.43 21835.3c12.67,18.36 22.71,38.58 29.64,59.77 254.53,298.98 390.26,578.11 145.52,584.99 -227.81,6.61 -501.12,414.07 -566.74,517 2.12,7.94 4.76,15.61 7.67,23.55 0,0 320.68,-533.14 582.08,-540.54 261.4,-7.4 88.9,-324.09 -198.17,-644.77z"/>
   <path class="fil6" d="M3272.57 22077.66c0,66.94 -7.41,121.18 -16.67,121.18 -9.26,0 -16.67,-54.24 -16.67,-121.18 0,-66.94 9.26,-35.45 18.52,-35.45 9.26,0 14.82,-31.49 14.82,35.45z"/>
   <path class="fil6" d="M3365.44 22157.56c-58.74,32.01 -110.07,51.33 -114.3,43.13 -4.23,-8.2 39.42,-40.75 98.16,-72.76 58.74,-32.01 35.72,-8.73 39.95,0 4.23,8.73 34.92,-2.38 -23.81,29.63z"/>
   <path class="fil1" d="M2234.87 21835.3c0,0 -145.52,190.24 66.94,476.25 212.46,286.01 387.61,529.17 317.5,708.29 0,0 -320.41,-533.14 -582.08,-540.54 -261.67,-7.4 -89.96,-323.32 197.64,-644z"/>
   <path class="fil5" d="M2234.87 21835.3c-12.67,18.39 -22.79,38.57 -29.88,59.79 -254.53,298.98 -390,578.11 -145.52,584.99 228.07,6.61 501.39,414.07 567,517 -2.15,7.96 -4.83,15.89 -7.94,23.53 -3.11,7.64 -320.41,-533.14 -582.08,-540.54 -261.67,-7.4 -89.18,-324.09 198.42,-644.77z"/>
   <path class="fil6" d="M1964.47 22077.66c0,66.94 7.67,121.18 16.93,121.18 9.26,0 16.67,-54.24 16.67,-121.18 0,-66.94 -9.26,-35.45 -18.52,-35.45 -9.26,0 -15.08,-31.49 -15.08,35.45z"/>
   <path class="fil6" d="M1871.86 22157.56c58.74,32.01 109.8,51.33 114.3,43.13 4.5,-8.2 -39.69,-40.75 -98.43,-72.76 -58.74,-32.01 -35.45,-8.73 -39.95,0 -4.5,8.73 -34.65,-2.38 24.08,29.63z"/>
   <path class="fil7" d="M11010.25 16913.62c0,0 -116.07,336.2 -325.97,781.05 -249.76,529.16 -632.89,1212.13 -1111.94,1666.16 -41.3,39.15 -82.92,76.51 -125.61,111.79l-401.09 -303c0,0 855.82,-1266.11 963.07,-2291.63l1001.54 35.63z"/>
   <path class="fil8" d="M2010.77 22995.76c0,0 406.4,-12.7 529.17,-99.75 122.77,-87.05 625.21,-191.56 655.37,-51.59 30.16,139.97 610.92,695.59 152.14,699.29 -458.78,3.7 -1066.27,-71.44 -1188.51,-145.79 -122.24,-74.35 -148.17,-402.16 -148.17,-402.16z"/>
   <path class="fil9" d="M3355.38 23495.03c-458.79,3.7 -1066.27,-71.44 -1188.51,-145.79 -92.87,-56.89 -130.18,-260.35 -142.61,-354.01l-13.49 0c0,0 26.46,327.55 147.9,402.17 121.44,74.62 729.72,149.49 1188.51,145.79 132.29,0 178.06,-48.15 175.68,-118 -18.52,42.85 -69.05,69.05 -167.48,69.84z"/>
   <path class="fil7" d="M12589.98 19396.81c0,0 -297.04,71.26 -528.82,112.89 0,0 -196.14,-832.24 -309.38,-1182.86 -112.89,-350.65 -332.67,-1171.21 -403.93,-1581.14l826.2 -65.65c0,0 64.56,344.69 149.23,860.1 74.78,453.99 165.1,1041.04 240.24,1640.77 9.17,71.96 17.99,143.92 26.46,215.89z"/>
   <path class="fil7" d="M11566.77 13183.38c0,0 29.81,78.27 74.81,192.82 80.91,205.39 211.18,528.24 306.45,726.75l2.9 6.11c147.99,310.37 348.97,865.24 348.45,902.85 -0.29,38.34 -35.69,103.4 -26.2,149.35 9.79,46.38 -12.39,146.81 35.99,139.66 48.04,-7.19 40.59,-86.93 39.48,-127.45 -0.77,-40.51 27.87,-131.3 41.68,-100.27 14.1,31.16 76.51,223.68 96.4,277.75 20.16,54.46 59.59,43.77 59.28,12.46 -0.58,-31.71 -38.55,-308.56 -25.87,-302.53 12.63,6.34 73.34,281.78 99.26,325.53 25.59,43.72 57.87,5.19 52.09,-20.13 -5.74,-25.66 -74.52,-324.32 -65.32,-309.71 9.21,14.65 116,300.5 149.38,302.5 31.7,2.11 20.67,-42.41 10.78,-82.73l-1.58 -5.93c-10.05,-41.69 -89.76,-240.83 -78.24,-225.89 11.5,14.95 117.38,219.9 138.71,211.22 21.28,-8.33 26.45,-48.04 -16.96,-128.09 -52.15,-95.62 -258.77,-465.09 -309.7,-660.5 -17.64,-68.65 -67.72,-270.66 -125.07,-504.61 -106.67,-433.88 -239.14,-977.12 -239.14,-977.12 -183.08,111.08 -567.58,197.96 -567.58,197.96z"/>
   <path class="fil10" d="M12766.33 15276.34l-1.58 -5.93c-9.45,-39.22 -80.63,-217.94 -79.36,-226.39 0.03,-0.21 0.12,-0.34 0.26,-0.32 0.17,0.02 0.45,0.3 0.86,0.82 11.17,14.51 111.31,208.14 136.64,211.44 0.77,0.1 1.45,0.05 2.07,-0.22 8.07,-3.15 13.81,-10.84 15.48,-23.46 2.73,-20.74 -5.49,-54.9 -32.44,-104.63 -52.15,-95.62 -258.77,-465.09 -309.7,-660.5 -44.14,-169.87 -285.83,-1160.23 -349.07,-1419.6 -56.47,27.76 -136.6,64.41 -227.49,98l0 0c-104.73,38.51 -223.68,73.18 -337.01,85.31 13.16,34.09 32.73,84.6 56.59,145.34l0 0c83.89,-16.32 168.88,-33.21 241.68,-23.73 22.82,2.98 46.65,6.08 66.3,18.1 24.96,15.03 40.37,41.26 53.5,67.16 70.33,136.75 110.01,286.96 149.56,435.45 71.87,272.19 146.4,547.45 286.19,791.78 55.12,96.01 120.1,186.26 174.49,282.83 58.46,103.91 105.01,214.25 151.24,324.27l1.79 4.28z"/>
   <path class="fil11" d="M12273.18 15161.3c9.79,46.34 -12.39,146.77 35.99,139.62 48.04,-7.19 40.59,-86.93 39.48,-127.45 -0.77,-40.51 27.87,-131.3 41.68,-100.27 14.1,31.16 76.51,223.68 96.4,277.75 20.16,54.46 59.57,43.77 59.28,12.46 -0.58,-31.71 -38.55,-308.56 -25.87,-302.53 12.65,6.34 73.34,281.78 99.26,325.53 25.59,43.72 57.87,5.19 52.09,-20.13 -5.74,-25.66 -74.52,-324.32 -65.32,-309.71 9.21,14.65 116,300.5 149.38,302.5 31.7,2.11 20.67,-42.41 10.78,-82.73l-1.58 -5.93c-10.05,-41.69 -89.76,-240.83 -78.25,-225.89 11.51,14.95 117.39,219.9 138.72,211.22 21.27,-8.33 26.44,-48.04 -16.96,-128.09 -52.15,-95.62 -258.77,-465.09 -309.7,-660.5 -17.63,-68.65 -67.72,-270.66 -125.07,-504.61 -107.31,46.24 -251.05,100.88 -422.56,146.52 147.99,310.37 348.97,865.24 348.45,902.85 -0.29,38.34 -35.69,103.4 -26.2,149.39z"/>
   <path class="fil12" d="M12454.7 14618.82c-186.76,-129.68 -399.03,-313.23 -580.26,-565.05 105.09,145.98 220.67,269.06 335.66,372.01 83.28,74.59 166.23,138.58 244.7,193.08 55.96,38.85 109.64,72.86 159.46,102.43l0 0c-49.87,-29.56 -103.55,-63.58 -159.56,-102.47z"/>
   <path class="fil13" d="M12614.26 14721.29l0 0c48.51,28.74 93.36,53.27 133.21,73.94l0 0c-39.85,-20.67 -84.76,-45.19 -133.21,-73.94z"/>
   <path class="fil13" d="M12747.47 14795.23l0 0c78.89,40.9 138.1,66.64 166.63,79.98 63.88,29.74 106.31,54.05 141.43,78.44 48.97,34.01 83.7,68.17 142.27,117.35 6.21,5.17 12.27,9.81 18.18,13.91 76.52,53.14 129.49,21.46 143.97,10.5l0 0c-14.48,10.96 -67.45,42.64 -143.97,-10.5 -5.91,-4.1 -11.97,-8.74 -18.18,-13.91 -58.57,-49.18 -93.3,-83.34 -142.27,-117.35 -35.12,-24.39 -77.55,-48.7 -141.43,-78.44 -28.55,-13.3 -87.77,-39.1 -166.63,-79.98z"/>
   <path class="fil14" d="M12227.37 13177.54c-135.05,58.17 -302.79,82.7 -444.23,92.11 -163.6,11.52 -291.57,2.71 -291.57,2.71 -233.44,-629.67 -176.22,-1314.7 278.14,-1253.54 352.91,47.57 435.34,616.33 453.5,938.9 7.34,129.82 4.16,219.82 4.16,219.82z"/>
   <path class="fil15" d="M12525.91 17350.71c0,0 -290.33,82.76 -812.23,64.74 -37.36,-0.99 -75.75,-3 -115.12,-5.33 -156.17,-9.35 -290.33,19.01 -426.12,52.03 -260.97,63.4 -527.94,143.51 -969.75,3.36 -202.2,-63.75 -440.82,-173.89 -732.13,-352.71 0,0 837.26,-1841.36 1161.61,-3232.88 0,0 467.85,441.46 1400.88,71.75 0,0 23,59.73 59.05,168.17 156.18,467.86 559.26,1841.03 433.81,3230.87z"/>
   <path class="fil16" d="M8249.56 11599.24c0,0 8.39,-73.12 -4.21,-123.53 0,0 -50.42,8.4 -60.93,-54.61 -10.5,-63.04 77.75,-86.15 109.26,-46.25 31.5,39.94 0,81.95 0,81.95 0,0 14.69,58.85 81.94,111.37 0,0 -63.03,3.32 -126.06,31.07z"/>
   <path class="fil16" d="M8110.96 11753.51c0,0 -37.03,-63.57 -77.32,-96.41 0,0 -35.38,36.9 -81.52,-7.27 -46.16,-44.2 10.68,-115.56 59.82,-102.43 49.14,13.08 49.06,65.6 49.06,65.6 0,0 47.01,38.35 132.31,40.15 0,0 -48.5,40.39 -82.35,100.36z"/>
   <path class="fil16" d="M8133.79 11991c0,0 -73.22,-7.3 -123.45,6.07 0,0 9.17,50.31 -53.71,61.74 -62.87,11.46 -87.3,-76.41 -47.87,-108.55 39.45,-32.1 81.95,-1.24 81.95,-1.24 0,0 58.59,-15.59 110.1,-83.6 0,0 4.29,63 32.98,125.58z"/>
   <path class="fil16" d="M8287.67 12134.2c0,0 -63.26,37.53 -95.77,78.1 0,0 37.22,35.07 -6.6,81.6 -43.81,46.5 -115.62,-9.74 -102.93,-58.99 12.68,-49.24 65.23,-49.6 65.23,-49.6 0,0 37.91,-47.34 39.01,-132.64 0,0 40.82,48.15 101.06,81.53z"/>
   <path class="fil16" d="M8516.04 12118.11c0,0 -20.08,70.8 -15.78,122.63 0,0 51.13,-0.18 51.32,63.71 0.21,63.92 -90.6,72.49 -115.27,28.01 -24.67,-44.49 13.21,-80.86 13.21,-80.86 0,0 -5.03,-60.47 -62.9,-123.12 0,0 62.74,6.85 129.42,-10.37z"/>
   <path class="fil16" d="M8671.04 11962.64c0,0 36.18,64.07 76.02,97.44 0,0 35.84,-36.44 81.4,8.36 45.57,44.84 -12.23,115.39 -61.2,101.63 -48.95,-13.75 -48.18,-66.28 -48.18,-66.28 0,0 -46.46,-38.95 -131.74,-41.88 0,0 49.03,-39.79 83.7,-99.27z"/>
   <path class="fil16" d="M8658.71 11728.33c0,0 69.99,22.71 121.92,20.35 0,0 1.75,-51.08 65.6,-48.89 63.86,2.18 69.06,93.24 23.68,116.2 -45.36,23 -80.33,-16.19 -80.33,-16.19 0,0 -60.57,2.75 -125.37,58.24 0,0 9.21,-62.44 -5.5,-129.71z"/>
   <path class="fil16" d="M8483.73 11557.66c0,0 63.43,-37.32 96.08,-77.75 0,0 -37.1,-35.21 6.9,-81.56 43.97,-46.36 115.58,10.16 102.7,59.37 -12.87,49.18 -65.4,49.35 -65.4,49.35 0,0 -38.1,47.21 -39.51,132.5 0,0 -40.65,-48.33 -100.77,-81.91z"/>
   <path class="fil16" d="M8711.26 11852.29c0,178.72 -144.85,323.57 -323.52,323.57 -178.71,0 -323.55,-144.85 -323.55,-323.57 0,-178.68 144.84,-323.52 323.55,-323.52 178.67,0 323.52,144.84 323.52,323.52z"/>
   <path class="fil17" d="M8284.3 11770.38c-13.48,0 -27.37,-3.28 -41.05,-10.83 -71.22,-39.16 -5.58,-160.31 69.89,-160.31 18.04,0 36.64,6.92 54.07,23.53 51.79,49.39 -9.45,147.61 -82.91,147.61z"/>
   <path class="fil17" d="M8527.71 11753.51c-50.22,0 -82.07,-76.94 -34.43,-105.51 9.8,-5.89 19,-8.43 27.44,-8.43 51.37,0 73.53,95.14 22.99,111.37 -5.48,1.76 -10.84,2.57 -16,2.57z"/>
   <path class="fil17" d="M8488.98 12101.18c-14.64,0 -30.72,-3.07 -48.23,-9.85 -157.47,-61.06 -58.6,-254.88 42.63,-254.88 6.83,0 13.63,0.88 20.4,2.75 128.35,35.21 111.04,261.98 -14.8,261.98z"/>
   <path class="fil16" d="M8740.57 9073.72c0,0 11.87,-103.26 -5.93,-174.49 0,0 -71.23,11.86 -86.06,-77.15 -14.85,-89.04 109.79,-121.71 154.3,-65.3 44.54,56.38 0,115.75 0,115.75 0,0 20.78,83.08 115.74,157.27 0,0 -89.02,4.72 -178.05,43.92z"/>
   <path class="fil16" d="M8544.82 9291.63c0,0 -52.34,-89.82 -109.24,-136.21 0,0 -49.93,52.18 -115.14,-10.26 -65.16,-62.41 15.12,-163.2 84.53,-144.68 69.4,18.49 69.29,92.68 69.29,92.68 0,0 66.38,54.15 186.88,56.69 0,0 -68.49,57.08 -116.32,141.78z"/>
   <path class="fil16" d="M8577.06 9627.05c0,0 -103.42,-10.3 -174.37,8.57 0,0 12.95,71.05 -75.85,87.21 -88.79,16.19 -123.31,-107.95 -67.61,-153.32 55.72,-45.33 115.73,-1.73 115.73,-1.73 0,0 82.78,-22.01 155.52,-118.11 0,0 6.07,88.97 46.58,177.38z"/>
   <path class="fil16" d="M8794.41 9829.3c0,0 -89.37,53.06 -135.27,110.35 0,0 52.56,49.49 -9.3,115.21 -61.88,65.69 -163.33,-13.72 -145.4,-83.29 17.93,-69.56 92.12,-70.09 92.12,-70.09 0,0 53.55,-66.82 55.1,-187.33 0,0 57.65,68.02 142.75,115.15z"/>
   <path class="fil16" d="M9116.98 9806.61c0,0 -28.37,99.98 -22.3,173.15 0,0 72.21,-0.25 72.49,90.03 0.3,90.27 -127.98,102.37 -162.82,39.54 -34.83,-62.83 18.66,-114.23 18.66,-114.23 0,0 -7.1,-85.37 -88.86,-173.88 0,0 88.64,9.7 182.83,-14.61z"/>
   <path class="fil16" d="M9335.88 9586.97c0,0 51.1,90.53 107.38,137.66 0,0 50.64,-51.47 114.98,11.82 64.36,63.28 -17.28,162.98 -86.43,143.54 -69.16,-19.44 -68.05,-93.63 -68.05,-93.63 0,0 -65.66,-54.99 -186.1,-59.16 0,0 69.24,-56.19 118.22,-140.23z"/>
   <path class="fil16" d="M9318.46 9256.03c0,0 98.88,32.07 172.2,28.76 0,0 2.48,-72.18 92.67,-69.11 90.21,3.1 97.51,131.76 33.43,164.21 -64.09,32.46 -113.44,-22.93 -113.44,-22.93 0,0 -85.56,3.92 -177.09,82.31 0,0 13,-88.2 -7.77,-183.24z"/>
   <path class="fil16" d="M9071.32 9014.98c0,0 89.58,-52.74 135.71,-109.85 0,0 -52.39,-49.68 9.73,-115.15 62.14,-65.48 163.27,14.32 145.08,83.82 -18.2,69.5 -92.38,69.74 -92.38,69.74 0,0 -53.8,66.61 -55.81,187.12 0,0 -57.4,-68.23 -142.33,-115.68z"/>
   <path class="fil16" d="M9392.73 9431.15c0,252.38 -204.62,456.99 -457,456.99 -252.39,0 -456.98,-204.61 -456.98,-456.99 0,-252.37 204.59,-456.99 456.98,-456.99 252.38,0 457,204.62 457,456.99z"/>
   <path class="fil18" d="M8789.67 9315.48c-19.05,0 -38.67,-4.7 -57.99,-15.31 -100.6,-55.32 -7.9,-226.45 98.69,-226.45 25.5,0 51.76,9.77 76.39,33.23 73.14,69.74 -13.34,208.53 -117.09,208.53z"/>
   <path class="fil18" d="M9133.44 9291.63c-70.92,0 -115.9,-108.69 -48.63,-149.05 13.84,-8.33 26.86,-11.92 38.76,-11.92 72.56,0 103.86,134.37 32.48,157.34 -7.75,2.46 -15.31,3.63 -22.61,3.63z"/>
   <path class="fil18" d="M9078.74 9782.66c-20.67,0 -43.4,-4.34 -68.12,-13.93 -222.43,-86.19 -82.75,-359.98 60.22,-359.98 9.63,0 19.27,1.27 28.8,3.88 181.3,49.74 156.85,370.03 -20.9,370.03z"/>
   <path class="fil16" d="M12359.19 8496.82c0,0 4.69,-40.75 -2.37,-68.86 0,0 -28.11,4.69 -33.93,-30.48 -5.89,-35.14 43.32,-48.01 60.89,-25.75 17.57,22.22 0,45.68 0,45.68 0,0 8.18,32.81 45.68,62.09 0,0 -35.13,1.87 -70.27,17.32z"/>
   <path class="fil16" d="M12281.89 8582.86c0,0 -20.63,-35.45 -43.1,-53.76 0,0 -19.72,20.57 -45.44,-4.06 -25.76,-24.66 5.92,-64.41 33.34,-57.11 27.41,7.3 27.37,36.58 27.37,36.58 0,0 26.18,21.38 73.77,22.37 0,0 -27.06,22.54 -45.94,55.98z"/>
   <path class="fil16" d="M12294.63 8715.3c0,0 -40.82,-4.1 -68.83,3.35 0,0 5.08,28.04 -29.95,34.43 -35.06,6.38 -48.68,-42.62 -26.7,-60.5 22.01,-17.92 45.68,-0.71 45.68,-0.71 0,0 32.7,-8.68 61.42,-46.6 0,0 2.4,35.1 18.38,70.03z"/>
   <path class="fil16" d="M12380.43 8795.13c0,0 -35.28,20.92 -53.38,43.53 0,0 20.71,19.58 -3.7,45.51 -24.42,25.93 -64.46,-5.43 -57.4,-32.88 7.09,-27.48 36.37,-27.66 36.37,-27.66 0,0 21.17,-26.38 21.77,-73.97 0,0 22.75,26.84 56.34,45.47z"/>
   <path class="fil16" d="M12507.78 8786.17c0,0 -11.22,39.47 -8.79,68.33 0,0 28.47,-0.07 28.61,35.56 0.11,35.63 -50.51,40.43 -64.31,15.63 -13.72,-24.84 7.38,-45.12 7.38,-45.12 0,0 -2.79,-33.69 -35.07,-68.65 0,0 35,3.84 72.18,-5.75z"/>
   <path class="fil16" d="M12594.17 8699.46c0,0 20.22,35.73 42.41,54.32 0,0 20,-20.28 45.4,4.66 25.4,25.01 -6.81,64.35 -34.11,56.69 -27.31,-7.69 -26.89,-36.97 -26.89,-36.97 0,0 -25.92,-21.69 -73.44,-23.35 0,0 27.34,-22.16 46.63,-55.35z"/>
   <path class="fil16" d="M12587.33 8568.82c0,0 39.02,12.63 67.98,11.33 0,0 0.99,-28.47 36.58,-27.24 35.6,1.2 38.49,52 13.2,64.81 -25.3,12.8 -44.81,-9.07 -44.81,-9.07 0,0 -33.76,1.55 -69.92,32.49 0,0 5.15,-34.82 -3.03,-72.32z"/>
   <path class="fil16" d="M12489.75 8473.64c0,0 35.35,-20.81 53.55,-43.35 0,0 -20.67,-19.62 3.88,-45.48 24.52,-25.85 64.42,5.65 57.26,33.09 -7.16,27.45 -36.48,27.52 -36.48,27.52 0,0 -21.23,26.32 -22.01,73.87 0,0 -22.65,-26.91 -56.2,-45.65z"/>
   <path class="fil16" d="M12616.65 8637.93c0,99.66 -80.79,180.45 -180.41,180.45 -99.63,0 -180.42,-80.79 -180.42,-180.45 0,-99.62 80.79,-180.41 180.42,-180.41 99.62,0 180.41,80.79 180.41,180.41z"/>
   <path class="fil18" d="M12378.56 8592.28c-7.52,0 -15.28,-1.87 -22.9,-6.07 -39.69,-21.83 -3.1,-89.39 38.98,-89.39 10.06,0 20.43,3.85 30.17,13.12 28.85,27.56 -5.3,82.34 -46.25,82.34z"/>
   <path class="fil18" d="M12514.27 8582.86c-28.01,0 -45.76,-42.89 -19.19,-58.84 5.47,-3.28 10.58,-4.69 15.31,-4.69 28.64,0 40.99,53.02 12.81,62.09 -3.07,0.98 -6.04,1.44 -8.93,1.44z"/>
   <path class="fil18" d="M12492.68 8776.71c-8.15,0 -17.11,-1.72 -26.88,-5.5 -87.84,-34.01 -32.67,-142.1 23.78,-142.1 3.81,0 7.58,0.5 11.35,1.52 71.58,19.65 61.92,146.08 -8.25,146.08z"/>
   <path class="fil16" d="M8099.2 17314.41c0,0 6.23,-54.19 -3.11,-91.58 0,0 -37.38,6.24 -45.16,-40.46 -7.79,-46.71 57.61,-63.89 80.97,-34.29 23.37,29.59 0,60.74 0,60.74 0,0 10.9,43.61 60.76,82.52 0,0 -46.73,2.5 -93.46,23.07z"/>
   <path class="fil16" d="M7996.46 17428.78c0,0 -27.46,-47.13 -57.32,-71.47 0,0 -26.21,27.37 -60.41,-5.4 -34.22,-32.74 7.92,-85.62 44.34,-75.92 36.44,9.7 36.37,48.65 36.37,48.65 0,0 34.85,28.4 98.06,29.74 0,0 -35.92,29.95 -61.04,74.4z"/>
   <path class="fil16" d="M8013.39 17604.82c0,0 -54.28,-5.4 -91.51,4.48 0,0 6.8,37.32 -39.82,45.79 -46.59,8.46 -64.71,-56.66 -35.47,-80.47 29.23,-23.81 60.73,-0.92 60.73,-0.92 0,0 43.44,-11.57 81.63,-61.95 0,0 3.19,46.68 24.44,93.07z"/>
   <path class="fil16" d="M8127.45 17710.97c0,0 -46.9,27.83 -71,57.92 0,0 27.61,25.97 -4.87,60.47 -32.47,34.47 -85.72,-7.23 -76.3,-43.74 9.39,-36.52 48.35,-36.76 48.35,-36.76 0,0 28.08,-35.1 28.91,-98.32 0,0 30.26,35.7 74.91,60.43z"/>
   <path class="fil16" d="M8296.76 17699.04c0,0 -14.91,52.46 -11.7,90.88 0,0 37.89,-0.14 38.03,47.24 0.15,47.37 -67.17,53.76 -85.45,20.78 -18.29,-32.95 9.8,-59.94 9.8,-59.94 0,0 -3.73,-44.84 -46.64,-91.27 0,0 46.51,5.05 95.96,-7.69z"/>
   <path class="fil16" d="M8411.63 17583.79c0,0 26.83,47.49 56.36,72.22 0,0 26.58,-26.99 60.33,6.2 33.79,33.24 -9.05,85.55 -45.35,75.36 -36.28,-10.2 -35.72,-49.14 -35.72,-49.14 0,0 -34.45,-28.86 -97.65,-31.08 0,0 36.33,-29.43 62.03,-73.56z"/>
   <path class="fil16" d="M8402.49 17410.12c0,0 51.89,16.83 90.37,15.06 0,0 1.32,-37.89 48.65,-36.26 47.33,1.62 51.16,69.14 17.53,86.22 -33.63,17 -59.53,-12.07 -59.53,-12.07 0,0 -44.9,2.05 -92.95,43.18 0,0 6.85,-46.28 -4.07,-96.13z"/>
   <path class="fil16" d="M8272.79 17283.61c0,0 47.01,-27.69 71.23,-57.68 0,0 -27.5,-26.07 5.1,-60.43 32.61,-34.36 85.67,7.52 76.14,43.99 -9.55,36.48 -48.48,36.59 -48.48,36.59 0,0 -28.25,34.96 -29.3,98.25 0,0 -30.12,-35.81 -74.69,-60.72z"/>
   <path class="fil16" d="M8441.46 17502.02c0,132.43 -107.39,239.82 -239.83,239.82 -132.46,0 -239.83,-107.39 -239.83,-239.82 0,-132.47 107.37,-239.86 239.83,-239.86 132.44,0 239.83,107.39 239.83,239.86z"/>
   <path class="fil18" d="M8124.96 17441.31c-10,0 -20.3,-2.47 -30.45,-8.05 -52.77,-29.03 -4.12,-118.85 51.82,-118.85 13.38,0 27.16,5.15 40.09,17.46 38.39,36.59 -7,109.44 -61.46,109.44z"/>
   <path class="fil18" d="M8305.41 17428.78c-37.25,0 -60.85,-57.01 -25.55,-78.24 7.26,-4.34 14.1,-6.25 20.33,-6.25 38.1,0 54.54,70.56 17.06,82.59 -4.05,1.3 -8.02,1.9 -11.84,1.9z"/>
   <path class="fil18" d="M8276.69 17686.49c-10.84,0 -22.76,-2.3 -35.75,-7.31 -116.75,-45.22 -43.43,-188.94 31.6,-188.94 5.06,0 10.11,0.67 15.12,2.04 95.13,26.14 82.3,194.21 -10.97,194.21z"/>
   <path class="fil16" d="M12742.91 14379.2c0,0 4.58,-39.68 -2.26,-67.09 0,0 -27.41,4.58 -33.09,-29.67 -5.72,-34.19 42.19,-46.75 59.3,-25.05 17.11,21.66 0,44.45 0,44.45 0,0 7.97,31.96 44.52,60.47 0,0 -34.26,1.83 -68.47,16.89z"/>
   <path class="fil16" d="M12667.66 14462.95c0,0 -20.11,-34.53 -41.98,-52.35 0,0 -19.19,20.07 -44.24,-3.95 -25.08,-23.99 5.78,-62.72 32.45,-55.6 26.71,7.09 26.64,35.63 26.64,35.63 0,0 25.54,20.78 71.82,21.8 0,0 -26.31,21.91 -44.69,54.47z"/>
   <path class="fil16" d="M12680.04 14591.89c0,0 -39.76,-3.95 -66.99,3.32 0,0 4.97,27.27 -29.18,33.51 -34.11,6.21 -47.38,-41.52 -25.96,-58.95 21.38,-17.42 44.45,-0.63 44.45,-0.63 0,0 31.82,-8.5 59.79,-45.44 0,0 2.33,34.19 17.89,68.19z"/>
   <path class="fil16" d="M12763.61 14669.65c0,0 -34.36,20.39 -52,42.39 0,0 20.22,19.01 -3.59,44.31 -23.78,25.26 -62.76,-5.29 -55.88,-32.03 6.91,-26.73 35.41,-26.95 35.41,-26.95 0,0 20.57,-25.64 21.17,-72 0,0 22.19,26.14 54.89,44.28z"/>
   <path class="fil16" d="M12887.61 14660.93c0,0 -10.9,38.41 -8.57,66.56 0,0 27.77,-0.1 27.87,34.57 0.07,34.72 -49.21,39.34 -62.62,15.21 -13.37,-24.17 7.2,-43.89 7.2,-43.89 0,0 -2.72,-32.84 -34.15,-66.84 0,0 34.04,3.74 70.27,-5.61z"/>
   <path class="fil16" d="M12971.75 14576.48c0,0 19.65,34.82 41.28,52.91 0,0 19.47,-19.79 44.2,4.55 24.73,24.35 -6.67,62.66 -33.23,55.18 -26.57,-7.48 -26.14,-35.98 -26.14,-35.98 0,0 -25.26,-21.14 -71.55,-22.76 0,0 26.6,-21.59 45.44,-53.9z"/>
   <path class="fil16" d="M12965.05 14449.27c0,0 37.99,12.34 66.22,11.07 0,0 0.91,-27.76 35.59,-26.56 34.68,1.2 37.5,50.62 12.88,63.11 -24.66,12.49 -43.64,-8.82 -43.64,-8.82 0,0 -32.88,1.52 -68.05,31.65 0,0 5.01,-33.91 -3,-70.45z"/>
   <path class="fil16" d="M12870.05 14356.63c0,0 34.43,-20.29 52.17,-42.23 0,0 -20.14,-19.09 3.74,-44.28 23.88,-25.18 62.76,5.51 55.78,32.21 -7.02,26.74 -35.53,26.81 -35.53,26.81 0,0 -20.67,25.62 -21.45,71.94 0,0 -22.08,-26.22 -54.71,-44.45z"/>
   <path class="fil16" d="M12993.59 14516.58c0,97.01 -78.64,175.68 -175.65,175.68 -97.01,0 -175.68,-78.67 -175.68,-175.68 0,-97.02 78.67,-175.65 175.68,-175.65 97.01,0 175.65,78.63 175.65,175.65z"/>
   <path class="fil18" d="M12761.78 14472.13c-7.34,0 -14.89,-1.8 -22.3,-5.9 -38.66,-21.27 -3.03,-87.03 37.96,-87.03 9.81,0 19.9,3.74 29.35,12.77 28.12,26.82 -5.11,80.16 -45.01,80.16z"/>
   <path class="fil18" d="M12893.93 14462.95c-27.27,0 -44.56,-41.77 -18.7,-57.29 5.33,-3.21 10.34,-4.58 14.89,-4.58 27.9,0 39.93,51.68 12.49,60.5 -2.97,0.95 -5.89,1.37 -8.68,1.37z"/>
   <path class="fil18" d="M12872.87 14651.69c-7.94,0 -16.65,-1.66 -26.14,-5.33 -85.52,-33.12 -31.82,-138.36 23.14,-138.36 3.7,0 7.41,0.46 11.08,1.48 69.67,19.13 60.25,142.21 -8.08,142.21z"/>
   <path class="fil19" d="M14337.25 13512.5l0 562.96c0,66.39 -40.08,122.49 -96.45,147.15 -24.06,10.68 -51.08,15.38 -79.45,12.7 -41.02,-4.03 -77.4,-23.39 -103.43,-51.72 -26.04,-28.72 -41.73,-66.75 -41.73,-108.13l0 -562.96c0,-68.05 42.72,-126.79 103.78,-149.83 15.03,-5.99 31.4,-9.34 48.09,-10.33 91.75,-5.36 169.19,68.08 169.19,160.16z"/>
   <path class="fil10" d="M12048.57 19456.68c-45.09,-188.74 -200.77,-832.49 -296.79,-1129.84 -65.8,-204.4 -167.93,-568.39 -255.77,-917.67 13.87,-0.57 27.87,-0.85 42.05,-0.85 19.83,0 39.97,0.56 60.5,1.8 39.37,2.33 77.76,4.34 115.12,5.33l0 0c51.25,1.76 100.22,2.57 146.96,2.57 181.72,0 328.86,-12.06 438.08,-26 7.98,47.59 16.16,97.02 24.56,148.13 -160.52,36.34 -336.55,64.21 -384.18,202.85 -27.16,78.67 4.23,163.69 32.81,241.65 130.88,353.44 219.43,723.19 262.82,1097.84 4.94,43.04 11.29,89.95 43.04,119.59 21.9,20.07 50.27,27.05 80.22,27.05 27.37,0 56.09,-5.85 82.41,-12.94 40.21,-10.94 81.49,-22.93 123.12,-35.27 6.77,53.16 13.37,106.36 19.75,159.52l-411.69 89.53 -123.01 26.71z"/>
   <path class="fil20" d="M13124.08 20124.94c-89.96,47.6 -204.61,98.43 -320.32,145.7 -84.67,34.58 -169.69,67.73 -247.65,96.66 -35.63,13.41 -69.5,25.73 -101.25,37.36 -53.97,19.8 -100.89,36.38 -136.88,49.07 -39.51,13.41 -82.55,-9.87 -92.42,-50.48 -11.65,-46.54 -24.7,-101.56 -37.75,-160.83 -46.57,-207.08 -97.72,-462.84 -117.83,-563.77 -5.64,-27.84 -8.82,-44.1 -8.82,-44.1l155.93 -34.18 420.51 -92.47c-2.47,16.97 -4.59,33.55 -6,50.09 -29.28,275.21 20.82,516.16 20.82,516.16 68.79,-22.93 130.88,-38.46 186.97,-48.73 114.65,-21.12 202.49,-19.72 265.99,-10.54 56.1,8.11 68.44,83.6 18.7,110.06z"/>
   <path class="fil21" d="M12642.19 19555.91l-10.59 2.08 -402.16 86.79 -158.05 33.87 -1.41 0c-27.52,5.32 -53.97,-11.96 -60.32,-39.12l-25.76 -115.37c-5.99,-28.22 11.65,-56.09 39.87,-62.08l147.81 -32.11 428.27 -93.13c28.58,-6.35 57.15,12.69 62.09,41.63l20.46 117.47c4.94,27.52 -12.7,53.97 -40.21,59.97z"/>
   <path class="fil22" d="M12295.05 20457.55c-15.34,0 -30.16,-4.98 -42.26,-13.76 -13.12,-9.53 -23.11,-23.49 -27.23,-40.54 -5.75,-22.96 -11.82,-48.01 -18.1,-74.61 -6.42,-27.31 -13.05,-56.23 -19.65,-86.22 -46.57,-207.08 -97.72,-462.84 -117.83,-563.77l1.41 0 158.05 -33.87 0 0c5.64,21.21 11.29,41.66 16.22,62.12 58.57,235.66 125.59,469.87 209.2,697.76 -53.97,19.8 -100.89,36.38 -136.88,49.07 -7.62,2.58 -15.34,3.82 -22.93,3.82z"/>
   <path class="fil23" d="M12060.03 19679.63c-23.7,0 -44.8,-16.26 -50.37,-40.1l-25.76 -115.37c-0.81,-3.76 -1.16,-7.51 -1.16,-11.18 0.03,-24.06 16.54,-45.72 41.03,-50.9l147.81 -32.11c13.41,57.15 29.99,114.65 45.51,170.4 4.23,15.16 8.47,29.98 12.35,44.41l-158.05 33.87 -1.41 0c-3.35,0.66 -6.67,0.98 -9.95,0.98z"/>
   <path class="fil10" d="M9511.39 19416.99l-301.37 -239.26 -111.86 -88.75c154.43,-242.18 609.2,-992.29 816.47,-1735.83 103.92,47.62 199.5,84.45 288.06,112.36l0 0c180.06,57.11 331.02,77.64 464.41,77.64 30.34,0 59.76,-1.06 88.41,-3 -22.41,49.71 -46.15,101.32 -71.23,154.52l0 0c-127,-6.7 -251.88,-21.87 -338.66,-21.87 -68.45,0 -140.4,0.7 -200.74,33.16 -73.37,39.86 -115.71,118.53 -153.46,192.97 -178.86,350.3 -357.72,700.25 -536.56,1050.53 -23.3,45.54 -46.92,92.46 -51.51,143.26 -9.89,112.17 71.26,202.85 168.99,268.11 -20.22,19.16 -40.5,37.89 -60.95,56.16z"/>
   <path class="fil20" d="M9411.09 20212.79c15.53,99.83 -300.2,73.73 -416.26,64.91 -18.7,-1.41 -32.45,-2.47 -38.46,-2.47 -27.85,0 -191.55,-174.28 -310.45,-319.62 -7.74,-9.56 -15.51,-19.05 -22.93,-28.22 -62.09,-77.61 -106.52,-142.18 -103.36,-160.55 4.24,-26.45 113.6,-160.12 223.31,-288.54 80.45,-94.19 160.87,-185.91 199.32,-229.31 14.81,-16.58 23.29,-26.1 23.29,-26.1l121.35 89.96 324.19 240.25c0,0 -15.51,14.45 -39.85,37.74 -90.32,85.73 -304.45,288.58 -325.6,309.7 -24.01,24.02 22.91,139.03 52.2,183.13 3.87,5.65 7.4,10.22 10.22,13.05 26.82,26.82 285.4,0 303.03,116.07z"/>
   <path class="fil21" d="M9531.76 19502.65l-77.62 89.95c-18.34,21.17 -50.09,24.31 -71.96,6.68l-10.94 -8.44 -310.8 -248 -118.18 -93.85 -16.57 -13.39c-22.24,-18 -26.12,-50.45 -8.48,-72.68l73.05 -93.13c17.63,-22.58 50.43,-26.46 73,-8.5l146.76 116.44 315.02 250.13c22.93,18.3 26.12,52.2 6.72,74.79z"/>
   <path class="fil22" d="M8622.99 19927.39l0 0c-59.9,-74.9 -103.38,-137.61 -103.52,-158.44 -0.01,-0.73 0.05,-1.44 0.16,-2.11 4.24,-26.45 113.6,-160.12 223.31,-288.54 80.45,-94.19 160.87,-185.91 199.32,-229.31l0 0 118.18 93.85 0 0c-161.58,183.08 -310.79,372.88 -437.45,584.55z"/>
   <path class="fil23" d="M9060.44 19342.84l0 0 -118.18 -93.85 -16.57 -13.39c-12.86,-10.42 -19.58,-25.65 -19.55,-40.93 0.01,-11.17 3.62,-22.37 11.07,-31.75l73.05 -93.13c10.15,-13.02 25.32,-19.83 40.69,-19.83 11.33,0 22.73,3.71 32.31,11.33l146.76 116.44c-5.3,5.65 -10.22,10.94 -15.53,16.58 -36.34,39.17 -72.32,78.65 -107.59,118.54 -9.17,9.88 -17.99,19.76 -26.46,29.99z"/>
   <path class="fil24" d="M11172.44 17462.15c77.4,-353.69 130.81,-713.1 160.17,-1074.17 42.36,-522.89 21.69,-1056.46 156.49,-1567.39 2.93,-1.2 5.78,-1.76 8.57,-1.76 17.96,0 32.91,23.1 40.15,42.15 37.71,102.1 39.37,189.2 48.71,297.64 33.38,381.42 76.42,756.85 94.13,1139.93 17,372.08 26.35,744.47 33.02,1116.9 -37.36,-0.99 -75.75,-3 -115.12,-5.33 -20.53,-1.24 -40.67,-1.8 -60.5,-1.8 -14.18,0 -28.18,0.28 -42.05,0.85 -114.19,4.62 -218.37,27.41 -323.57,52.98z"/>
   <path class="fil24" d="M10202.69 17465.51l0 0c-202.2,-63.75 -440.82,-173.89 -732.13,-352.71 0,0 178.01,-391.48 401.69,-949.93 37.83,0.46 70.33,0.6 96.33,0.6 24.42,0 43.16,-0.14 55.27,-0.24 10.34,-0.36 21.02,-0.67 31.7,-2.01 70.75,-9.04 129.13,-25.05 176.52,-43.04 21.69,-8.01 41.72,-18.7 59.74,-31.72l0 0c66.05,-46.35 109.12,-120.79 116.46,-203.55 12.46,-141.82 13.53,-286.7 9.18,-418.5 93.54,-223.7 321.4,-784.57 518.04,-1394.45 124.56,44.17 247.75,64.45 364.06,69.25l0 0c19.37,0.81 38.49,1.2 57.47,1.2 384.6,0 681.35,-160.06 681.35,-160.06 -1.87,-9.52 -3.7,-19.08 -5.54,-28.61 0.07,-0.03 0.15,-0.07 0.22,-0.07 0,0 23,59.73 59.05,168.17 -94.12,57.72 -198.9,99.13 -302.01,133.46 -223.91,74.43 -464.82,131.16 -640.01,289.35 -143.82,129.47 -225.59,312.65 -297.98,491.86 -279.65,691.45 -479.22,1414.85 -593.66,2151.67 -14.69,93.76 -28.38,188.91 -55.75,279.33zm200.36 -2245.29c-1.08,-13.06 -2.1,-25.76 -3.13,-38.1 -6.82,-73.17 -42.51,-137.48 -95.62,-181.76 127.84,-377.32 244.71,-763.64 327.87,-1120.44 0,0 0.04,0.03 0.11,0.1 -1.46,18.67 -2.45,28.93 -2.45,28.93l0 0c67.75,48.9 136.51,88.48 205.23,120.16 -152.93,510.68 -312.7,916.86 -432.01,1191.11z"/>
   <path class="fil20" d="M12283.31 12742.99c-166.87,126.15 -412.12,205.59 -736.82,216.6 -1056.47,35.7 -1435.56,-539.61 -1386.5,-1136.93 49.04,-597.31 539.6,-855.94 539.6,-855.94 0,0 -138.15,-280.98 -71.43,-726.79 67.09,-445.8 575.29,-490.18 575.29,-490.18 45.72,-71.76 146.16,-142.49 277.96,-185.21 203.23,-66.75 481.22,-68.09 744.85,91.44 434.48,262.96 372.39,722.1 153.81,731.13 214.25,655.36 -144.81,1061.16 -144.81,1061.16 402.76,493.87 424.14,1011.43 48.05,1294.72z"/>
   <path class="fil22" d="M12238.15 12774.74c-18.41,-25.4 -40.46,-54.97 -65.62,-87.14 -22.64,-28.96 -47.8,-60.11 -75.07,-92.29 -8.01,-129.82 -69.39,-253.93 -142.2,-320.81 -112.11,-103.12 -176.85,-358.74 -357.72,-513.58 -9.35,-8.04 -19.01,-15.8 -29.03,-23.28 -2.19,-13.62 -3.6,-26.92 -3.99,-39.79 -3,-93.42 24.03,-228.56 43.04,-311l0 0c2.36,-9.99 4.66,-19.02 6.67,-27.34l0 0c64.34,11.43 130.24,17.11 194.63,17.11 134.65,0 262.64,-24.87 355.67,-73.84l0 0c6.06,-3.21 12.13,-6.63 18.02,-10.12 0.36,-0.22 0.74,-0.43 1.1,-0.64 -24.84,32.7 -56.59,59.97 -95.54,79.16 -77.43,38.03 -166.86,38.35 -249.94,61.39 -82.76,22.68 -168.56,82.76 -171.55,168.51 -4.34,131.16 172.19,190.89 222.6,312 25.01,59.76 16.33,128.48 37.36,189.9 31.71,91.08 122.8,148.16 171.52,231.91 50.37,86.75 51.4,194.56 95.78,284.31 22.68,45.72 55.74,85.09 89.43,123.79 -14.47,10.93 -29.5,21.51 -45.16,31.75zm-2003.17 -443.73c-54.02,-127.6 -79.25,-266.49 -79.15,-408.48 0.01,-33.16 1.41,-66.46 4.16,-99.87 49.04,-597.31 539.6,-855.94 539.6,-855.94l0 0c0,0 -89.67,-182.38 -89.63,-486.41 0.01,-73.34 5.24,-153.74 18.2,-240.38 67.09,-445.8 575.29,-490.18 575.29,-490.18 45.72,-71.76 146.16,-142.49 277.96,-185.21 -4.66,6.31 -9,13.02 -12.32,20 -87.77,92.78 -120.47,244.97 -49.74,351.05 -130.14,31.36 -161.5,219.25 -87.42,331.05 34.4,51.96 81.85,91.19 135.37,123.15 -11.89,3.6 -23.18,5.19 -33.8,5.19 -79.27,0 -123.26,-87.95 -123.26,-87.95l0 0c5.15,36.62 7.48,70.34 7.48,101.42 0,194.95 -91.76,285.29 -152.12,323.64 -38.88,-15.17 -72.21,-29.67 -95.21,-40.32 -16.54,-12.42 -35.31,-18.28 -54.11,-18.28 -55.7,0 -111.73,51.51 -111.62,136.67 0,23.04 4.13,48.54 13.51,76.13 39.23,116.66 101.35,141.29 146.92,141.29 26.53,0 47.45,-8.36 54.93,-11.78 0,0 6.77,164.42 6.77,318.69 0,115.75 -3.81,225.78 -17.11,256.25 -10.23,23.29 -28.5,37.11 -44.27,50.56 -240.62,38.34 -448.6,172.86 -518.58,321.27 -92.59,84.7 -197.58,210.4 -311.85,368.44zm879.04 -1573.84c-8.04,-24.41 -19.65,-43.07 -33.37,-56.55 13.83,13.37 25.4,32.11 33.37,56.55z"/>
   <path class="fil25" d="M11901.88 12960.9c0,0 35.39,502.21 136.49,1019.45 0,0 -326.71,176.22 -738.82,158.86 -211.56,-8.68 -445.8,-68.76 -669.72,-230.26 0,0 53.39,-560.6 -35.71,-922.34 -89.09,-361.42 -184.18,-688.44 -53.71,-1009.43 88.43,-216.93 475.52,-410.13 838.23,-327.03 89.11,20.32 160.16,60.4 218.9,110.77 180.87,154.84 245.61,410.46 357.72,513.58 148.52,136.49 249.62,511.21 -53.38,686.4z"/>
   <path class="fil26" d="M11299.55 14139.21c-116.31,-4.8 -239.5,-25.08 -364.06,-69.25 134.19,-416.17 253.85,-855.17 306.35,-1225.37 116.48,-821.06 -151.63,-1007.11 -423.93,-1007.11 -19.44,0 -38.94,0.95 -58.28,2.68 -59.97,5.36 -131.59,48.08 -212.8,122.41 69.98,-148.41 277.96,-282.93 518.58,-321.27 -15.93,13.61 -29.38,26.84 -29.38,49.14 0,23.21 14.57,56.3 55.98,109.85 103.54,134.66 371.41,332.25 489.73,332.25 16.26,0 29.7,-3.74 39.51,-11.89l0 0 4.34 -3.67c65.86,-73.17 -35.03,-242.15 -57.08,-379.34 10.02,7.48 19.68,15.24 29.03,23.28 24.73,80.75 44.73,162.84 64.1,241.94 20.32,82.76 25.01,196.57 -55.07,224.58 -7.62,2.64 -15.48,3.66 -23.49,3.66 -14.82,0 -30.2,-3.52 -45.51,-7.05 -15.31,-3.56 -30.59,-7.09 -45.19,-7.09 -10.02,0 -19.76,1.66 -28.96,6.14 -115.82,55.38 -155.86,614.36 -152.19,668.72 3.03,48.4 -6.67,96.77 -15.35,144.85 -57.4,321.67 -62.72,652.36 -16.02,975.72 6,42.05 13.02,84.42 19.69,126.82zm-464.49 -110.1c-68.72,-31.68 -137.48,-71.26 -205.23,-120.16 0,0 15.86,-166.47 15.87,-376.52 0,-47.2 -0.79,-96.62 -2.75,-146.86 6.03,-10.87 11.91,-21.48 17.58,-31.75l0 0c31.51,-57.15 57.44,-104.7 74.9,-136.81 17.82,4.31 35.6,8.01 53.24,11.01 0,0 415.88,-595 364.62,-991.24 40.81,226.77 -8.36,619.41 -190.77,1332.94 -41.21,161.15 -84.07,314.47 -127.46,459.39zm216.18 -2008.12c-4.9,-4.76 -9.98,-9.45 -15.31,-13.97 -9,-7.69 -17.99,-14.68 -27.02,-21.03 -6.35,-4.65 -12.74,-9.03 -19.16,-13.12 22.33,13.79 42.9,29.6 61.49,48.12zm-112.85 -75.28c-12.07,-5.05 -24.2,-9.25 -36.34,-12.56 11.25,2.57 22.3,6.28 33.13,11.11 1.05,0.49 2.15,0.99 3.21,1.45z"/>
   <path class="fil27" d="M10408.27 15882.91c-7.34,82.76 -50.41,157.2 -116.46,203.55 -18.02,13.02 -38.05,23.71 -59.74,31.72 -47.39,17.99 -105.77,34 -176.52,43.04 -10.68,1.34 -21.36,1.65 -31.7,2.01 -110.46,0.98 -772.18,2.99 -1291.41,-95.11 -142.17,-26.71 -238.61,-160.16 -217.58,-303.67 25.68,-174.17 72.07,-419.46 154.16,-659.38 24.36,-70.42 69.75,-128.8 128.47,-168.52 54.05,-37.36 118.46,-58.42 187.21,-58.74l0.33 0c204.9,-0.32 567.96,10.34 1169.62,60.75 55.06,4.65 105.12,25.68 145.48,58.38 55.41,44.38 92.79,110.14 99.79,185.18 2.01,24.06 4.01,49.42 6.35,76.44 0.65,8.36 1.32,17.68 1.65,27.03l0.35 2.36c12,170.5 18.34,386.08 0,594.96z"/>
   <path class="fil27" d="M10417.27 15464.8c-27.37,65.72 -43.04,102.13 -43.04,102.13l-160.51 53.69c0,0 76.41,-141.15 189.2,-400.12 1.01,12.38 2.33,25.05 3.35,38.06 0.65,8.36 1.32,17.68 1.65,27.03l0.35 2.32c3.99,54.76 7.01,114.48 9,176.89z"/>
   <path class="fil28" d="M10399.52 15182.12c-7.04,-74.9 -46.04,-140.9 -103.6,-185.11 -42.32,-32.8 -94.3,-53.87 -151.48,-58.49 -626.38,-50.3 -1004.37,-60.96 -1217.88,-60.64l-2.15 0.04c-109.95,1.2 -206.61,73.87 -245.63,176.67 -28.54,75.14 -54.23,166.08 -64.84,266.98 -7.8,71.68 44.55,136.59 119.19,145.52 253.58,31.01 849.16,93.42 1325.17,65.97 65.71,-3.56 118.82,-52.07 127.35,-114.83 7.43,-53.87 18.94,-123.79 36,-196.89l1.14 -3.95c47.52,-152.61 164.48,-167.25 183.41,41.07 -2.23,-26.78 -4.45,-52.46 -6.68,-76.34z"/>
   <path class="fil29" d="M9968.58 16163.47c-198.51,0 -773.8,-8 -1236.14,-95.35 -129.11,-24.27 -220.52,-136.56 -220.46,-264.48 0.01,-12.91 0.95,-26 2.88,-39.19 20.68,-140.23 54.78,-326.57 110.13,-519.08 -4.55,24.66 -8.31,50.09 -11.05,76.2 -7.8,71.68 44.55,136.59 119.19,145.52 5.66,0.67 11.5,1.38 17.5,2.12 -16.47,118 -15.78,240.52 38.86,344.63 97.44,185.52 328.69,250.61 536.59,278.3 151.71,20.07 304.76,30.09 457.76,30.09 147.16,0 294.28,-9.24 440.21,-27.72 22.37,-2.69 44.72,-5.68 67.76,-8.05 -18.02,13.02 -38.05,23.71 -59.74,31.72 -47.39,17.99 -105.77,34 -176.52,43.04 -10.68,1.34 -21.36,1.65 -31.7,2.01 -12.11,0.1 -30.85,0.24 -55.27,0.24zm-984.07 -1285.41c-3.19,0 -6.31,-0.04 -9.43,-0.07 3.2,-0.07 6.41,-0.14 9.62,-0.18 -0.07,0.11 -0.14,0.18 -0.19,0.25z"/>
   <path class="fil30" d="M8750.63 15469.21c-6,-0.74 -11.84,-1.45 -17.5,-2.12 -74.64,-8.93 -126.99,-73.84 -119.19,-145.52 2.74,-26.11 6.5,-51.54 11.05,-76.2 13.39,-46.6 28.03,-93.56 44.03,-140.3 19.26,-55.67 51.67,-103.82 93.42,-141.18 -0.1,0.21 -0.21,0.46 -0.3,0.67 11.01,-10.34 23.01,-19.65 35.35,-28.01l0 0c28.31,-19.58 59.45,-34.68 92.58,-44.66 19.16,-5.72 38.96,-9.67 59.27,-11.75 0.04,-0.11 0.1,-0.21 0.15,-0.32 8.45,-0.92 16.99,-1.55 25.59,-1.83 3.12,0.03 6.24,0.07 9.43,0.07 -122.68,150.46 -189.36,344.24 -224.39,532.66 -3.53,19.29 -6.75,38.84 -9.49,58.49z"/>
   <path class="fil31" d="M9489.26 15427.72l-23.69 177.55c-6.69,49.74 -50.4,86.12 -100.45,83.79l-1.02 0c-9.64,-0.36 -18.67,-2.01 -27.02,-5.05 -42.38,-14.32 -70.39,-57.04 -64.41,-103.75 7.01,-56.76 16.37,-126.15 25.04,-180.55 6.34,-40.71 37.37,-71.76 75.75,-79.73 9.34,-2.01 19.35,-2.36 29.38,-1.34 54.38,5.33 93.42,54.72 86.42,109.08z"/>
   <path class="fil32" d="M9337.08 15684.01c-38.57,-13.05 -65.25,-49.6 -65.21,-91.3 0,-4.09 0.26,-8.25 0.8,-12.45 7.01,-56.76 16.37,-126.15 25.04,-180.55 6.34,-40.71 37.37,-71.76 75.75,-79.73 -27.7,122.77 -50.05,237.56 -36.38,364.03z"/>
   <path class="fil31" d="M11241.84 12844.59c-129.47,913.02 -667.41,2244.46 -824.56,2620.21 -11.78,28.32 -21.41,51.15 -28.55,68.05 -9.22,21.76 -27.24,38.31 -49.68,45.82l-77.18 25.83c-17.44,5.85 -33.28,-12.17 -24.95,-28.51 30.79,-60.5 90.18,-181.36 166,-355.49 153.19,-352.04 373.08,-921.66 559.6,-1650.78 316.36,-1237.37 231.94,-1509.64 -27.34,-1625.46 -258.94,-116.1 -644.37,424.82 -1149.59,1340.17 -300.33,544.23 -623.69,1174.29 -836.25,1595.71 -55.4,5.68 -107.13,25.4 -151.85,56.41 -12.34,8.36 -24.34,17.67 -35.35,28.01 104.42,-237.6 281.31,-589.31 583.62,-1150.89 582.63,-1081.87 1129.58,-1948.15 1413.87,-1973.51 290.34,-26.04 607.02,124.81 482.21,1004.43z"/>
   <path class="fil7" d="M10759.63 13172.28c0,0 -39.68,73.77 -99.1,181.54 -106.77,193.22 -277.65,496.53 -397.77,681.07l-3.67 5.68c-186.85,288.65 -457.83,812.9 -462.17,850.26 -4.67,38.06 22.03,107.14 6.68,151.48 -15.7,44.73 -6.68,147.18 -53.73,133.84 -46.71,-13.33 -29.02,-91.44 -22.68,-131.48 5.99,-40.07 -10.68,-133.8 -28.38,-104.81 -18.01,29.07 -104.77,211.92 -131.47,262.96 -27.03,51.4 -64.75,35.71 -60.4,4.7 4.67,-31.37 78.09,-300.99 64.74,-296.65 -13.34,4.65 -109.13,269.94 -140.49,309.98 -31.02,40.04 -58.05,-2.33 -49.05,-26.7 9.01,-24.7 115.8,-311.97 104.79,-298.67 -11.03,13.34 -153.85,283 -187.21,280.67 -31.71,-2.01 -15.02,-44.73 0,-83.43l2.33 -5.68c15.35,-40.04 120.12,-227.22 106.77,-213.89 -13.34,13.34 -144.81,202.89 -164.84,191.53 -20.02,-11.01 -20.02,-51.05 33.37,-124.82 64.07,-88.09 316.69,-427.76 392.44,-614.95 26.36,-65.79 102.12,-259.64 189.21,-484.22 161.83,-416.46 363.38,-938.04 363.38,-938.04 167.19,133.81 537.25,269.63 537.25,269.63z"/>
   <path class="fil10" d="M9299.72 15092.72l2.33 -5.68c14.44,-37.67 108.11,-205.7 107.94,-214.24 0,-0.21 -0.07,-0.35 -0.21,-0.35 -0.17,0 -0.49,0.24 -0.96,0.7 -12.95,12.95 -137.27,192.02 -162.81,192.02 -0.78,0 -1.45,-0.14 -2.03,-0.49 -7.59,-4.17 -12.29,-12.53 -12.32,-25.26 -0.03,-20.92 12.54,-53.73 45.69,-99.56 64.07,-88.09 316.69,-427.76 392.44,-614.95 65.71,-162.74 433.33,-1113.58 529.55,-1362.6 52.41,34.82 127.13,81.52 212.92,126.57l0 0c98.88,51.72 212.35,101.46 323.17,128.13 -17.46,32.11 -43.39,79.66 -74.9,136.81l0 0c-81.08,-27.02 -163.17,-54.75 -236.59,-54.75 -23.01,0 -47.04,0 -68.08,9.38 -26.69,11.68 -45.36,35.7 -61.73,59.69 -87.41,126.51 -146.16,270.34 -204.56,412.47 -106.44,260.63 -215.9,523.95 -386.09,748.17 -67.06,88.09 -143.16,169.19 -209.57,257.91 -71.39,95.49 -131.81,198.89 -191.86,302.01l-2.33 4.02z"/>
   <path class="fil11" d="M9803.6 15042.35c-15.7,44.69 -6.68,147.14 -53.73,133.8 -46.71,-13.33 -29.02,-91.44 -22.68,-131.48 5.99,-40.07 -10.68,-133.8 -28.38,-104.81 -18.01,29.07 -104.77,211.92 -131.47,262.96 -27.03,51.4 -64.73,35.71 -60.4,4.7 4.67,-31.37 78.09,-300.99 64.74,-296.65 -13.36,4.65 -109.13,269.94 -140.49,309.98 -31.02,40.04 -58.05,-2.33 -49.05,-26.7 9.01,-24.7 115.8,-311.97 104.79,-298.67 -11.03,13.34 -153.85,283 -187.21,280.67 -31.71,-2.01 -15.02,-44.73 0,-83.43l2.33 -5.68c15.35,-40.04 120.12,-227.22 106.78,-213.89 -13.35,13.34 -144.82,202.89 -164.85,191.53 -20.01,-11.01 -20.01,-51.05 33.37,-124.82 64.07,-88.09 316.69,-427.76 392.44,-614.95 26.35,-65.79 102.12,-259.64 189.21,-484.22 100.44,59.72 235.92,132.47 400.09,199.88 -186.85,288.65 -457.83,812.9 -462.17,850.26 -4.67,38.06 22.03,107.14 6.68,151.52z"/>
   <path class="fil25" d="M10788.67 13228.02c-127.14,-21.7 -261.61,-79.09 -376.41,-139.14 -167.16,-87.77 -292.32,-181.89 -292.32,-181.89 143.5,-638.35 546.6,-1170.62 888.97,-921 9.03,6.35 18.02,13.34 27.02,21.03 378.77,325.33 -247.26,1221 -247.26,1221z"/>
   <path class="fil26" d="M10412.26 13088.88l0 0c-167.16,-87.77 -292.32,-181.89 -292.32,-181.89 118.73,-528.21 415.29,-983.86 708.03,-983.86 61.06,0 121.88,19.79 180.94,62.86 -36.69,11.36 -71.72,29.36 -101.78,50.7 -81.74,58.74 -139.14,145.2 -187.18,233.61 -48.72,89.74 -89.78,183.2 -122.81,279.65 -61.73,180.19 -96.45,372.07 -184.88,538.93z"/>
   <path class="fil7" d="M11625.59 12116.98l-4.34 3.67c-81.11,67.42 -411.45,-167.18 -529.24,-320.36 -120.46,-155.82 -13.69,-138.15 17.67,-209.55 31.05,-71.07 10.34,-574.94 10.34,-574.94l5.36 6.66c292.99,362.41 500.21,292 500.21,292 0,0 -4.69,17 -11.36,45.05 -2.01,8.32 -4.31,17.35 -6.67,27.34 -19.01,82.44 -46.04,217.58 -43.04,311 4.34,142.48 133.46,338.7 61.07,419.13z"/>
   <path class="fil7" d="M12399.44 10744.83c-6.03,170.18 -37.39,362.05 -135.15,480.52 -20.71,25.01 -47.41,47.06 -78.77,65.75l-0.32 0c-136.14,81.74 -361.74,105.45 -570.97,68.41 -187.54,-33.06 -362.06,-114.8 -447.5,-247.3 -17.99,-27.69 -32,-57.72 -41.35,-89.75l-2.32 -8.36 -3.04 1.7c-20.35,9.34 -139.79,55.03 -201.85,-129.51 -68.4,-201.86 142.48,-290.97 195.85,-129.12 0,0 249.59,-71.43 196.22,-450.14 0,0 62.41,124.78 172.51,77.08 109.78,-47.41 101.14,-267.33 101.14,-267.33 0,0 65.05,121.81 201.86,98.14 136.84,-24.03 116.13,-163.51 116.13,-163.51 0,0 50.41,115.78 145.49,172.19 95.11,56.72 142.49,-62.41 142.49,-62.41 0,0 6.03,205.21 190.21,225.92 0,0 3,18.66 6.67,51.36 7.02,63.43 17.04,178.86 12.7,306.36z"/>
   <polygon class="fil33" points="11125.38,11022.46 11120.02,11015.8 11123.06,11014.1 "/>
   <path class="fil10" d="M11581.74 12132.54c-118.32,0 -386.19,-197.59 -489.73,-332.25 -41.41,-53.55 -55.98,-86.64 -55.98,-109.85 0,-44.35 53.09,-52.85 73.65,-99.7 13.3,-30.47 17.11,-140.5 17.11,-256.25 0,-154.27 -6.77,-318.69 -6.77,-318.69l0 0 5.36 6.66c9.35,32.03 23.36,62.06 41.35,89.75l0 0c85.44,132.5 259.96,214.24 447.5,247.3 -2.01,8.32 -4.31,17.35 -6.67,27.34l0 0c-74.08,-36.02 -154.16,-59.41 -236.25,-69.08 -5.01,-0.49 -10.2,-0.95 -15.28,-0.95 -8.47,0 -16.79,1.27 -24.1,5.64 -9.34,5.65 -15.02,15.35 -20.35,25.02 -76.76,145.16 -83.08,325.67 -17.04,475.85 61.42,138.46 183.2,248.95 326.71,297.32 -9.81,8.15 -23.25,11.89 -39.51,11.89z"/>
   <path class="fil10" d="M12182.55 11292.66c0.88,-0.53 1.77,-1.06 2.65,-1.56 -0.88,0.53 -1.77,1.03 -2.65,1.56zm-1015.82 -180.45l0 0c-17.99,-27.69 -32,-57.72 -41.35,-89.75l0 0 -2.32 -8.36 -3.04 1.7c-7.48,3.42 -28.4,11.78 -54.93,11.78 -45.57,0 -107.69,-24.63 -146.92,-141.29 -9.38,-27.59 -13.51,-53.09 -13.51,-76.13 -0.11,-85.16 55.92,-136.67 111.62,-136.67 18.8,0 37.57,5.86 54.11,18.28 -0.25,-0.11 -0.5,-0.21 -0.75,-0.32 3.81,2.72 7.48,5.75 11.01,9.17 13.72,13.48 25.33,32.14 33.37,56.55l0 0c96.63,72.18 163.09,85.13 198.34,85.13 1.02,0 2.01,-0.04 2.99,-0.04 -4.83,140.8 -82.86,224.23 -148.62,269.95zm-150.66 -376.17c-3.42,0 -6.88,1.06 -9.88,3.21 -26.63,19.51 -42.33,43.68 -50.94,66.22 -8.64,22.58 -10.51,43.46 -10.51,57.89 0,11.78 1.27,19.3 1.37,20.04 1.45,8.11 8.47,13.79 16.44,13.83 0.95,0 1.91,-0.11 2.89,-0.29 9.07,-1.58 15.14,-10.23 13.55,-19.29l-0.07 -0.6c-0.25,-1.73 -0.81,-6.67 -0.81,-13.69 -0.04,-8.33 0.81,-19.44 3.81,-31.61 2.5,3.35 5.22,6.84 8.15,10.41 16.51,19.93 38.98,43 67.7,53.97 1.93,0.74 3.9,1.06 5.84,1.06 6.78,0 13.13,-4.13 15.63,-10.83 3.25,-8.61 -1.13,-18.24 -9.77,-21.45 -18.83,-6.84 -39.15,-26.03 -53.58,-43.88 -7.27,-8.86 -13.19,-17.32 -17.25,-23.46l-1.13 -1.77c6.81,-10.37 15.95,-20.46 28.44,-29.63 7.4,-5.43 9.03,-15.88 3.56,-23.32 -3.25,-4.44 -8.33,-6.81 -13.44,-6.81zm52.9 -44.94l0 0c-10.32,-7.66 -21.68,-12.7 -33.04,-15.35 0,0 12.38,6 33.04,15.35zm263.07 93.94c-57.68,-13.61 -116.49,-33.62 -166.3,-52.91l0 0c-0.03,0 -0.1,-0.04 -0.14,-0.04 60.36,-38.35 152.12,-128.69 152.12,-323.64 0,-31.08 -2.33,-64.8 -7.48,-101.42 0,0 43.99,87.95 123.26,87.95 15.13,0 31.57,-3.21 49.25,-10.87 94.79,-40.92 101.28,-210.4 101.28,-255.97 0,-7.24 -0.14,-11.36 -0.14,-11.36 0,0 54.04,101.17 167.18,101.17 11.01,0 22.58,-0.95 34.68,-3.03 105.02,-18.45 117.26,-104.92 117.26,-144.11 0,-11.89 -1.13,-19.4 -1.13,-19.4 0,0 50.41,115.78 145.49,172.19 18.31,10.9 34.82,15.31 49.56,15.31 62.02,0 92.93,-77.72 92.93,-77.72 0,0 6.03,205.21 190.21,225.92 0,0 3,18.66 6.67,51.36 -32.7,-3.31 -65.4,-11.99 -94.76,-23.98 -11.67,-4.7 -119.13,-79.45 -119.13,-79.45 -28.19,14.32 -59.65,21.17 -91.19,21.17 -61.03,0.03 -122.49,-25.58 -162.1,-72.22 -29.18,43.85 -82.06,67.24 -134.45,67.24 -37.11,0 -73.97,-11.75 -101.95,-36.26 31.29,29.67 10.37,87.03 -25.54,112.5 -36.72,26.03 -83.75,34.04 -120.79,59.41 -81.32,55.17 -90.24,168.62 -88.94,267.79 -53.94,12.7 -94.15,23.99 -115.85,30.37z"/>
   <path class="fil34" d="M11068.97 10691.1c-20.66,-9.35 -33.04,-15.35 -33.04,-15.35 11.36,2.65 22.72,7.69 33.04,15.35z"/>
   <path class="fil35" d="M10962.55 10897.23c-7.97,-0.04 -14.99,-5.72 -16.44,-13.83 -0.1,-0.74 -1.37,-8.26 -1.37,-20.04 0,-14.43 1.87,-35.31 10.51,-57.89 8.61,-22.54 24.31,-46.71 50.94,-66.22 3,-2.15 6.46,-3.21 9.88,-3.21 5.11,0 10.19,2.37 13.44,6.81 5.47,7.44 3.84,17.89 -3.56,23.32 -12.49,9.17 -21.63,19.26 -28.44,29.63l-3.53 -5.54 -1.48 -2.47c-3.07,-5.39 -8.71,-8.43 -14.5,-8.43 -2.82,0 -5.64,0.71 -8.25,2.23 -8.01,4.55 -10.8,14.74 -6.21,22.75 0.25,0.42 6.95,12.17 18.38,27.41 -3,12.17 -3.85,23.28 -3.81,31.61 0,7.02 0.56,11.96 0.81,13.69l0.07 0.6c1.59,9.06 -4.48,17.71 -13.55,19.29 -0.98,0.18 -1.94,0.29 -2.89,0.29z"/>
   <path class="fil35" d="M11063.61 10897.19c-1.94,0 -3.91,-0.32 -5.84,-1.06 -28.72,-10.97 -51.19,-34.04 -67.7,-53.97 -2.93,-3.57 -5.65,-7.06 -8.15,-10.41 -11.43,-15.24 -18.13,-26.99 -18.38,-27.41 -4.59,-8.01 -1.8,-18.2 6.21,-22.75 2.61,-1.52 5.43,-2.23 8.25,-2.23 5.79,0 11.43,3.04 14.5,8.43l1.48 2.47 3.53 5.54 1.13 1.77c4.06,6.14 9.98,14.6 17.25,23.46 14.43,17.85 34.75,37.04 53.58,43.88 8.64,3.21 13.02,12.84 9.77,21.45 -2.5,6.7 -8.85,10.83 -15.63,10.83z"/>
   <path class="fil36" d="M11760.56 10685.84c-18.49,0 -33.44,-29.91 -33.44,-66.85 0,-36.94 14.95,-66.89 33.44,-66.89 18.45,0 33.44,29.95 33.44,66.89 0,36.94 -14.99,66.85 -33.44,66.85z"/>
   <path class="fil36" d="M12226.19 10685.84c-17.85,0 -32.31,-28.93 -32.31,-64.63 0,-35.7 14.46,-64.63 32.31,-64.63 17.85,0 32.32,28.93 32.32,64.63 0,35.7 -14.47,64.63 -32.32,64.63z"/>
   <path class="fil37" d="M12018.41 10609.68c25.89,13.69 9.48,110.56 18.41,119.45 8.89,8.92 55.6,-31.12 70.73,0 15.63,32.14 -20.04,81.14 -100.29,90.06 -80.26,8.93 -26.74,-229.59 11.15,-209.51z"/>
   <path class="fil20" d="M11673.18 10405.91c25.08,-8.29 67.48,-19.65 120.01,-23.39 17.85,-1.23 31.93,-16.08 32.67,-33.93l0.03 -3.71c-0.17,-17.67 -15.17,-31.54 -32.73,-32.84 -29,-2.12 -80.23,-0.46 -144.18,24.27 -17.04,6.56 -27.34,25.01 -22.02,42.47l1.77 5.26c6.56,17.96 26.31,27.87 44.45,21.87z"/>
   <path class="fil20" d="M12283.06 10405.91c-22.79,-8.29 -61.31,-19.65 -109.08,-23.39 -16.23,-1.23 -29.03,-16.08 -29.7,-33.93l-0.04 -3.71c0.14,-17.67 13.79,-31.54 29.78,-32.84 26.35,-2.12 72.88,-0.46 131.05,24.27 15.49,6.56 24.87,25.01 20,42.47l-1.58 5.26c-5.96,17.96 -23.92,27.87 -40.43,21.87z"/>
   <path class="fil38" d="M12392.77 10845.47c0.99,-9.73 1.84,-19.47 2.61,-29.17 3.88,4.16 6,8.64 6,13.33 0,5.65 -3.07,11.01 -8.61,15.84z"/>
   <path class="fil28" d="M11341.95 10838.28c0,0 -77.43,31.36 -227.93,-81.11 -10.01,-30.69 -25.68,-52.38 -44.38,-65.72 23.04,10.66 56.73,25.33 96.1,40.68 66.39,25.71 148.84,52.74 223.24,64.1 158.5,23.67 -47.03,42.05 -47.03,42.05z"/>
   <path class="fil11" d="M12399.44 10744.83c-6.03,170.18 -37.39,362.05 -135.15,480.52 -20.71,25.01 -47.41,47.06 -78.77,65.75l-0.32 0c-6.67,3.99 -13.69,8.01 -20.67,11.68 -137.52,72.39 -351.41,92.07 -550.3,56.73 -187.54,-33.06 -362.06,-114.8 -447.5,-247.3 73.41,-51.05 162.21,-149.16 147.18,-321.66 0,0 71.75,-23.04 185.21,-47.42 215.9,-46.03 583.98,-96.09 900.32,1.7z"/>
   <path class="fil39" d="M12373.65 10955.54c0,0 -207.82,-36.19 -494.59,-36.19 -85.59,0 -178.15,3.21 -274.39,11.57 0,0 164.64,-58.04 375.49,-58.04 123.26,0 262.29,19.83 393.49,82.66z"/>
   <path class="fil39" d="M12326.38 11059.22c0,0 -389.22,-8.46 -721.71,-50.2 0,0 120.19,-12.38 270.26,-12.38 150.78,0 331.72,12.49 451.45,62.58z"/>
   <path class="fil39" d="M11973.39 11193.21c-116.49,0 -257.42,-19.16 -400.86,-84.07 0,0 308.82,53.41 543.67,53.41 52.56,0 101.45,-2.68 142.31,-9.24 0,0 -117.09,39.9 -285.12,39.9z"/>
   <path class="fil40" d="M11808.86 11376.62c-64.39,0 -130.29,-5.68 -194.63,-17.11l0 0c-187.54,-33.06 -362.06,-114.8 -447.5,-247.3 67.84,-47.17 148.77,-134.48 148.84,-283.53 0.03,-12.31 -0.53,-25.01 -1.66,-38.13 0,0 71.75,-23.04 185.21,-47.42 1.65,48.76 4.34,95.78 -13.02,149.19 -16.02,46.71 -40.36,92.11 -40.36,141.15 0.32,100.79 99.77,169.19 189.87,214.24 102.55,51.26 215.54,96.49 328.11,96.49 29.53,0 59.06,-3.14 88.34,-10.06 37.71,-8.68 74.75,-24.02 112.47,-31.36 -93.03,48.97 -221.02,73.84 -355.67,73.84z"/>
  </g>
 </g>
</svg>
